<svg xmlns="http://www.w3.org/2000/svg" version="1.1" xmlns:xlink="http://www.w3.org/1999/xlink" width="512" height="512" x="0" y="0" viewBox="0 0 1707 1707" style="enable-background:new 0 0 512 512" xml:space="preserve" fill-rule="evenodd"><g><path d="M1490 495c-39-2-75-16-104-39l-299 272c77 104 72 246-12 345l288 299c91-57 212 9 212 118 0 77-62 139-139 139-74 0-134-57-139-130l-306-45c-47 104-203 71-203-43 0-59 48-106 106-106 54 0 98 40 105 92l307 45c4-11 9-21 15-30l-288-299c-103 81-249 78-350-6l-370 362c58 91-7 213-117 213-77 0-140-62-140-139 0-64 44-118 102-134l-12-200c-67-10-118-68-118-138 0-89 82-154 169-135l91-200c-147-99-77-328 99-328 99 0 180 80 180 179 0 118-113 203-226 173l-91 200c93 69 65 215-46 246l12 199c21 3 40 11 57 22l370-361c-144-182-15-453 219-453 71 0 137 27 186 72l299-272c-19-31-30-67-28-106l-406-87c-61 137-266 93-266-56 0-77 62-139 139-139s139 62 139 139l406 86c26-66 91-113 167-113 99 0 179 80 179 179 0 81-55 150-130 172l43 360c50 8 89 52 89 104 0 59-48 107-106 107-116 0-147-160-41-204zM862 671c-122 0-221 100-221 222s99 221 221 221 221-99 221-221-99-222-221-222zM786 83c-45 0-81 36-81 81 0 44 36 81 81 81s81-37 81-81c0-45-36-81-81-81zm782 822c-62 8-54 96 5 96 66 0 61-103-5-96zM171 1153c106-8 99-163-4-163-45 0-81 37-81 81 0 47 40 84 85 82zm1185 325c-7 51 31 93 80 93 45 0 81-36 81-81 0-100-147-109-161-12zm-462-115c-63 0-63 96 0 96 64 0 63-96 0-96zM387 466c-66 0-121 54-121 121s55 121 121 121c67 0 122-54 122-121s-55-121-122-121zm-191 996c-45 0-82 36-82 81s37 81 82 81c44 0 81-36 81-81s-37-81-81-81zM1498 195c-67 0-121 54-121 121s54 121 121 121 121-54 121-121-54-121-121-121z" stroke="none" opacity="1" data-original="#000000"></path></g></svg>