<svg xmlns="http://www.w3.org/2000/svg" version="1.1" xmlns:xlink="http://www.w3.org/1999/xlink"
    width="512" height="512" x="0" y="0" viewBox="0 0 512 512"
    style="enable-background:new 0 0 512 512" xml:space="preserve"><g>
    <path d="M476 48H36A28.031 28.031 0 0 0 8 76v296a28.031 28.031 0 0 0 28 28h162.24l-4.8 24H160a8 8 0 0 0-8 8v24a8 8 0 0 0 8 8h192a8 8 0 0 0 8-8v-24a8 8 0 0 0-8-8h-33.44l-4.8-24H476a28.031 28.031 0 0 0 28-28V76a28.031 28.031 0 0 0-28-28ZM344 440v8H168v-8Zm-134.24-16 4.8-24h82.88l4.8 24ZM488 372a12.01 12.01 0 0 1-12 12H36a12.01 12.01 0 0 1-12-12v-20h464Zm0-36H24V76a12.01 12.01 0 0 1 12-12h440a12.01 12.01 0 0 1 12 12Z" stroke="none" opacity="1" data-original="#000000"></path><path d="M264 360h-16a8 8 0 0 0 0 16h16a8 8 0 0 0 0-16Z" stroke="none" opacity="1" data-original="#000000"></path></g></svg>