<svg xmlns="http://www.w3.org/2000/svg" version="1.1" xmlns:xlink="http://www.w3.org/1999/xlink" width="512" height="512" x="0" y="0" viewBox="0 0 512 512" style="enable-background:new 0 0 512 512" xml:space="preserve" class=""><g><path d="M461.144 60.883 260.312.633a14.99 14.99 0 0 0-8.62 0L50.858 60.883a15 15 0 0 0-10.69 14.367v220.916c0 28.734 11.632 58.148 34.573 87.425 17.522 22.36 41.762 44.813 72.048 66.736 50.877 36.828 100.975 59.42 103.083 60.363a14.994 14.994 0 0 0 12.258 0c2.108-.943 52.205-23.535 103.082-60.363 30.285-21.923 54.525-44.376 72.047-66.736 22.941-29.276 34.573-58.69 34.573-87.425V75.25a14.996 14.996 0 0 0-10.688-14.367zm-19.311 235.283c0 50.852-51.023 98.534-93.826 129.581-38.374 27.833-77.291 47.583-92.005 54.678-14.714-7.095-53.632-26.845-92.006-54.678-42.804-31.047-93.828-78.729-93.828-129.581V86.41l185.833-55.75 185.832 55.75v209.756z" opacity="1" stroke="none" data-original="#000000" class=""></path></g></svg>