<svg id="Layer_1" enable-background="new 0 0 24 24" viewBox="0 0 24 24" xmlns="http://www.w3.org/2000/svg"><g><path d="m16.2 22h-8.4c-1.8 0-2.8 0-3.6-.4s-1.4-1-1.7-1.7c-.5-.9-.5-1.9-.5-3.7v-1.2c0-.6.4-1 1-1s1 .4 1 1v1.2c0 1.5 0 2.3.2 2.7s.5.7.9.9 1.2.2 2.7.2h8.4c1.5 0 2.3 0 2.7-.2s.7-.5.9-.9.2-1.2.2-2.7v-1.2c0-.6.4-1 1-1s1 .4 1 1v1.2c0 1.8 0 2.8-.4 3.6s-1 1.4-1.7 1.7c-.9.5-1.9.5-3.7.5zm-4.2-6c-.1 0-.3 0-.4-.1-.1 0-.2-.1-.3-.2l-5-5c-.4-.4-.4-1 0-1.4s1-.4 1.4 0l3.3 3.3v-9.6c0-.6.4-1 1-1s1 .4 1 1v9.6l3.3-3.3c.4-.4 1-.4 1.4 0s.4 1 0 1.4l-5 5c-.1.1-.2.2-.3.2-.1.1-.3.1-.4.1z"/></g></svg>