<svg id="Icons" height="512" viewBox="0 0 74 74" width="512" xmlns="http://www.w3.org/2000/svg"><path d="m69.009 23.307h-64.018a3 3 0 0 1 -3-3v-13.29a3 3 0 0 1 3-3h64.018a3 3 0 0 1 3 3v13.29a3 3 0 0 1 -3 3zm-64.018-17.29a1 1 0 0 0 -1 1v13.29a1 1 0 0 0 1 1h64.018a1 1 0 0 0 1-1v-13.29a1 1 0 0 0 -1-1z"/><path d="m59.991 18.007a4.345 4.345 0 1 1 4.346-4.345 4.35 4.35 0 0 1 -4.346 4.345zm0-6.69a2.345 2.345 0 1 0 2.346 2.345 2.348 2.348 0 0 0 -2.346-2.345z"/><path d="m46.646 18.007a4.345 4.345 0 1 1 4.345-4.345 4.35 4.35 0 0 1 -4.345 4.345zm0-6.69a2.345 2.345 0 1 0 2.345 2.345 2.348 2.348 0 0 0 -2.345-2.345z"/><path d="m37.28 14.662h-26.617a1 1 0 0 1 0-2h26.617a1 1 0 0 1 0 2z"/><path d="m69.009 46.645h-64.018a3 3 0 0 1 -3-3v-13.29a3 3 0 0 1 3-3h64.018a3 3 0 0 1 3 3v13.29a3 3 0 0 1 -3 3zm-64.018-17.29a1 1 0 0 0 -1 1v13.29a1 1 0 0 0 1 1h64.018a1 1 0 0 0 1-1v-13.29a1 1 0 0 0 -1-1z"/><path d="m59.991 41.345a4.345 4.345 0 1 1 4.346-4.345 4.35 4.35 0 0 1 -4.346 4.345zm0-6.69a2.345 2.345 0 1 0 2.346 2.345 2.348 2.348 0 0 0 -2.346-2.345z"/><path d="m46.646 41.345a4.345 4.345 0 1 1 4.345-4.345 4.35 4.35 0 0 1 -4.345 4.345zm0-6.69a2.345 2.345 0 1 0 2.345 2.345 2.348 2.348 0 0 0 -2.345-2.345z"/><path d="m37.28 38h-26.617a1 1 0 1 1 0-2h26.617a1 1 0 0 1 0 2z"/><path d="m69.009 69.983h-64.018a3 3 0 0 1 -3-3v-13.29a3 3 0 0 1 3-3h64.018a3 3 0 0 1 3 3v13.29a3 3 0 0 1 -3 3zm-64.018-17.29a1 1 0 0 0 -1 1v13.29a1 1 0 0 0 1 1h64.018a1 1 0 0 0 1-1v-13.29a1 1 0 0 0 -1-1z"/><path d="m59.991 64.683a4.345 4.345 0 1 1 4.346-4.345 4.35 4.35 0 0 1 -4.346 4.345zm0-6.69a2.345 2.345 0 1 0 2.346 2.345 2.348 2.348 0 0 0 -2.346-2.345z"/><path d="m46.646 64.683a4.345 4.345 0 1 1 4.345-4.345 4.35 4.35 0 0 1 -4.345 4.345zm0-6.69a2.345 2.345 0 1 0 2.345 2.345 2.348 2.348 0 0 0 -2.345-2.345z"/><path d="m37.28 61.338h-26.617a1 1 0 0 1 0-2h26.617a1 1 0 0 1 0 2z"/><path d="m61.51 29.358a1 1 0 0 1 -1-1v-5.049h-47.02v5.049a1 1 0 1 1 -2 0v-6.049a1 1 0 0 1 1-1h49.02a1 1 0 0 1 1 1v6.049a1 1 0 0 1 -1 1z"/><path d="m61.51 52.688h-49.02a1 1 0 0 1 -1-1v-6.04a1 1 0 0 1 2 0v5.04h47.02v-5.04a1 1 0 0 1 2 0v6.04a1 1 0 0 1 -1 1z"/></svg>