<svg id="Layer_1" enable-background="new 0 0 800 800" viewBox="0 0 800 800" xmlns="http://www.w3.org/2000/svg"><g fill="rgb(0,0,0)"><path d="m733.3 675h-266.6c-13.8 0-25-11.2-25-25s11.2-25 25-25h266.7c13.8 0 25 11.2 25 25s-11.3 25-25.1 25zm-400 0h-266.6c-13.8 0-25-11.2-25-25s11.2-25 25-25h266.7c13.8 0 25 11.2 25 25s-11.3 25-25.1 25z"/><path d="m400 608.3c-13.8 0-25-11.2-25-25v-100c0-13.8 11.2-25 25-25s25 11.2 25 25v100c0 13.8-11.2 25-25 25z"/><path d="m400 741.7c-50.5 0-91.7-41.1-91.7-91.7s41.1-91.7 91.7-91.7 91.7 41.1 91.7 91.7-41.2 91.7-91.7 91.7zm0-133.4c-23 0-41.7 18.7-41.7 41.7s18.7 41.7 41.7 41.7 41.7-18.7 41.7-41.7-18.7-41.7-41.7-41.7z"/><path d="m633.3 508.3h-33.3c-13.8 0-25-11.2-25-25s11.2-25 25-25h33.3c41.4 0 75-33.6 75-75s-33.6-75-75-75h-466.6c-41.4 0-75 33.6-75 75s33.6 75 75 75h300c13.8 0 25 11.2 25 25s-11.2 25-25 25h-300c-68.9 0-125-56.1-125-125s56.1-125 125-125h466.7c68.9 0 125 56.1 125 125-.1 69-56.1 125-125.1 125z"/><path d="m633.3 308.3h-466.6c-68.9 0-125-56.1-125-125s56.1-125 125-125h100c13.8 0 25 11.2 25 25s-11.2 25-25 25h-100c-41.4 0-75 33.6-75 75s33.6 75 75 75h466.7c41.4 0 75-33.6 75-75s-33.6-75-75-75h-233.4c-13.8 0-25-11.2-25-25s11.2-25 25-25h233.3c68.9 0 125 56.1 125 125s-56 125-125 125z"/><path d="m633.3 208.3h-200c-13.8 0-25-11.2-25-25s11.2-25 25-25h200c13.8 0 25 11.2 25 25s-11.2 25-25 25z"/><path d="m633.3 408.3h-200c-13.8 0-25-11.2-25-25s11.2-25 25-25h200c13.8 0 25 11.2 25 25s-11.2 25-25 25z"/><circle cx="200" cy="183.3" r="33.3"/><circle cx="200" cy="383.3" r="33.3"/></g></svg>