<?xml version="1.0" encoding="UTF-8"?>
<svg xmlns="http://www.w3.org/2000/svg" xmlns:xlink="http://www.w3.org/1999/xlink" version="1.1" id="Capa_1" x="0px" y="0px" viewBox="0 0 511 511" style="enable-background:new 0 0 511 511;" xml:space="preserve" width="512" height="512">
<g>
	<path style="fill:none;stroke:#000000;stroke-width:15;stroke-linecap:round;stroke-linejoin:round;stroke-miterlimit:10;" d="&#10;&#9;&#9;M75.509,426.109C33.358,381.655,7.5,321.597,7.5,255.5c0-136.967,111.033-248,248-248s248,111.033,248,248s-111.033,248-248,248&#10;&#9;&#9;c-59.923,0-114.882-21.253-157.751-56.631"/>
	<path style="fill:none;stroke:#000000;stroke-width:15;stroke-linecap:round;stroke-linejoin:round;stroke-miterlimit:10;" d="&#10;&#9;&#9;M356.833,441.788c-30.106,16.411-64.631,25.737-101.333,25.737c-117.098,0-212.025-94.927-212.025-212.025&#10;&#9;&#9;c0-86.367,51.639-160.672,125.727-193.725"/>
	<path style="fill:none;stroke:#000000;stroke-width:15;stroke-linecap:round;stroke-linejoin:round;stroke-miterlimit:10;" d="&#10;&#9;&#9;M197.457,51.518c18.446-5.239,37.917-8.043,58.043-8.043c117.098,0,212.025,94.927,212.025,212.025&#10;&#9;&#9;c0,69.527-33.465,131.238-85.167,169.903"/>
	<g>
		<g>
			<path style="fill:none;stroke:#000000;stroke-width:15;stroke-linecap:round;stroke-linejoin:round;stroke-miterlimit:10;" d="&#10;&#9;&#9;&#9;&#9;M223.619,291.459l27.005-70.905c0.552-1.349,2.462-1.351,3.016-0.003l26.759,70.908"/>
			
				<line style="fill:none;stroke:#000000;stroke-width:15;stroke-linecap:round;stroke-linejoin:round;stroke-miterlimit:10;" x1="230.345" y1="273.8" x2="273.736" y2="273.8"/>
		</g>
		<g>
			<path style="fill:none;stroke:#000000;stroke-width:15;stroke-linecap:round;stroke-linejoin:round;stroke-miterlimit:10;" d="&#10;&#9;&#9;&#9;&#9;M141.482,226.931c0,0-12.905-10.848-28.123-6.263c-13.973,4.209-15.928,20.321-5.818,26.912c0,0,9.92,4.426,20.922,8.484&#10;&#9;&#9;&#9;&#9;c26.485,9.769,15.076,35.392-6.245,35.392c-10.677,0-19.638-4.676-25.062-10.661"/>
		</g>
		<g>
			
				<line style="fill:none;stroke:#000000;stroke-width:15;stroke-linecap:round;stroke-linejoin:round;stroke-miterlimit:10;" x1="169.204" y1="219.541" x2="208.921" y2="219.541"/>
			
				<line style="fill:none;stroke:#000000;stroke-width:15;stroke-linecap:round;stroke-linejoin:round;stroke-miterlimit:10;" x1="188.982" y1="219.538" x2="188.982" y2="291.459"/>
		</g>
		<g>
			
				<line style="fill:none;stroke:#000000;stroke-width:15;stroke-linecap:round;stroke-linejoin:round;stroke-miterlimit:10;" x1="371.482" y1="219.541" x2="411.199" y2="219.541"/>
			
				<line style="fill:none;stroke:#000000;stroke-width:15;stroke-linecap:round;stroke-linejoin:round;stroke-miterlimit:10;" x1="391.26" y1="219.538" x2="391.26" y2="291.459"/>
		</g>
		<g>
			
				<line style="fill:none;stroke:#000000;stroke-width:15;stroke-linecap:round;stroke-linejoin:round;stroke-miterlimit:10;" x1="314.933" y1="257.134" x2="345.143" y2="291.459"/>
			
				<line style="fill:none;stroke:#000000;stroke-width:15;stroke-linecap:round;stroke-linejoin:round;stroke-miterlimit:10;" x1="306.26" y1="219.541" x2="306.26" y2="291.459"/>
			<path style="fill:none;stroke:#000000;stroke-width:15;stroke-linecap:round;stroke-linejoin:round;stroke-miterlimit:10;" d="&#10;&#9;&#9;&#9;&#9;M345.143,238.232c0,10.322-9.051,18.691-19.748,18.691c-5.305,0-18.978,0.082-18.978,0.082s-0.086-13.57-0.086-18.773&#10;&#9;&#9;&#9;&#9;c0-4.273-0.048-18.691-0.048-18.691s12.842,0,19.111,0C336.092,219.541,345.143,227.909,345.143,238.232z"/>
		</g>
	</g>
</g>















</svg>
