<svg clip-rule="evenodd" fill-rule="evenodd" height="512" stroke-linejoin="round" stroke-miterlimit="2" viewBox="0 0 24 24" width="512" xmlns="http://www.w3.org/2000/svg"><g id="Icon"><path d="m12 1.25c5.933 0 10.75 4.817 10.75 10.75s-4.817 10.75-10.75 10.75-10.75-4.817-10.75-10.75 4.817-10.75 10.75-10.75zm0 1.5c-5.105 0-9.25 4.145-9.25 9.25s4.145 9.25 9.25 9.25 9.25-4.145 9.25-9.25-4.145-9.25-9.25-9.25z"/><path d="m16.438 10.633c.501.273.812.797.812 1.367s-.311 1.094-.811 1.367l-6.386 3.483c-.483.263-1.068.253-1.541-.028-.472-.28-.762-.789-.762-1.339v-6.966c0-.55.29-1.059.762-1.339.473-.281 1.058-.291 1.541-.028zm-.718 1.317-6.386-3.483c-.017-.01-.039-.01-.056.001-.017.01-.028.029-.028.049v6.966c0 .02.011.039.028.049.017.011.039.011.057.001l6.385-3.483c.019-.01.03-.029.03-.05s-.011-.04-.03-.05z"/></g></svg>