<svg id="Image" viewBox="0 0 64 64" xmlns="http://www.w3.org/2000/svg"><g fill="none" stroke="#464747" stroke-linecap="round" stroke-linejoin="round" stroke-width="2"><path d="m31.1 53.088c-1.629-1.1-3.265-2.276-4.837-3.5"/><path d="m34.371 50.425c-1.861-1.233-3.672-2.516-5.361-3.817"/><path d="m44.448 56.433c1.191.639 2.343 1.23 3.431 1.767a2 2 0 0 1 -.879 3.8 2.089 2.089 0 0 1 -.879-.2c-.676-.327-2.448-1.213-4.826-2.519"/><path d="m17.5 40.823a12.342 12.342 0 0 1 -2.5-6.823c0-4.33 2.061-8.15 5.141-11.54a34.34 34.34 0 0 1 2.85-2.8 97.93 97.93 0 0 1 12.429-8.91c.54-.34 1.071-.69 1.611-1.03 1.21-.78 2.4-1.56 3.48-2.31 2.3-1.61 4.119-3.11 4.69-4.28a2 2 0 0 1 1.799-1.13 1.942 1.942 0 0 1 .871.2 2 2 0 0 1 .93 2.67c-.86 1.79-2.76 3.5-5.33 5.34-1.02.74-2.15 1.49-3.361 2.29q-1.214.78-2.529 1.62a103.56 103.56 0 0 0 -11.53 8.16 35.412 35.412 0 0 0 -2.9 2.82c-2.502 2.75-4.151 5.72-4.151 8.9a8.092 8.092 0 0 0 1.585 4.3"/><path d="m44.76 34.4c2.614 2.087 4.24 4.178 4.24 6.6 0 5.01-3.859 9.78-8.059 13.48-1.1.99-2.231 1.89-3.32 2.71a60.651 60.651 0 0 1 -7.03 4.56 1.942 1.942 0 0 1 -.961.25 2 2 0 0 1 -.96-3.75 55.557 55.557 0 0 0 5.23-3.33c1.111-.8 2.27-1.68 3.4-2.62 4.03-3.36 7.7-7.51 7.7-11.3 0-1.023-1.261-2.335-3.1-3.737"/><path d="m29.421 24.662c1.884 1.243 3.871 2.44 5.814 3.6"/><path d="m26.267 27.371c1.851 1.262 3.8 2.463 5.733 3.629"/><path d="m17.8 19.8a17.006 17.006 0 0 1 -1.011-1.522 12.246 12.246 0 0 1 -1.789-6.278c0-7.01 5.011-9.67 5.221-9.78a2.013 2.013 0 0 1 2.7.86 2.008 2.008 0 0 1 -.849 2.69c-.162.09-3.072 1.76-3.072 6.23a8.25 8.25 0 0 0 1.088 3.973q.261.477.577.947"/><path d="m45.6 12.688c1.982 2.576 3.4 5.424 3.4 8.312 0 3.97-2.969 7.65-7.159 11.31-1.02.88-2.12 1.78-3.27 2.66-1.68 1.33-3.47 2.64-5.28 3.98-2.36 1.74-4.84 3.57-7.05 5.41-1.091.9-2.111 1.8-3.031 2.69-2.501 2.44-4.21 4.83-4.21 6.95a8.134 8.134 0 0 0 1.61 4.72 2.012 2.012 0 0 1 -1.55 3.28 1.976 1.976 0 0 1 -1.52-.71 12.167 12.167 0 0 1 -2.54-7.29c0-3.41 2.121-6.6 5.321-9.74.91-.89 1.91-1.78 2.98-2.67 2.32-1.94 4.94-3.88 7.619-5.85 1.321-.98 2.681-1.98 4.011-3 1.16-.88 2.29-1.77 3.35-2.66 3.799-3.19 6.719-6.37 6.719-9.08a10.084 10.084 0 0 0 -2.45-5.736"/><path d="m34.451 7.717c-1.151-.844-2.193-1.533-2.971-2.007a2 2 0 0 1 2.08-3.42c.493.307 2.2 1.371 4.3 2.968"/></g></svg>