<svg id="Layer_1" enable-background="new 0 0 512 512" viewBox="0 0 512 512" xmlns="http://www.w3.org/2000/svg"><path d="m453.11 27.51h-298.57c-35.16 0-63.76 28.61-63.76 63.77v280.67h-69.78c-3.31 0-6 2.69-6 6v62.65c0 24.2 19.69 43.89 43.89 43.89h336.62c14.17 0 25.71-11.53 25.71-25.71v-74.66c8.42-16.79 14.97-36.17 17.92-45.49l33.64-106.46 6.96 2.21-14.7 46.52c-1 3.16.75 6.53 3.91 7.53.6.19 1.21.28 1.81.28 2.55 0 4.91-1.64 5.72-4.19l16.51-52.24c1-3.16-.75-6.53-3.91-7.53l-12.68-4.02 3.95-12.5c1.96-6.19 1.38-12.79-1.63-18.58-2.08-4-5.15-7.25-8.89-9.53l4.39-13.48c1.03-3.15-.7-6.54-3.85-7.56-3.15-1.03-6.54.7-7.56 3.85l-4.43 13.61c-4.29-.23-8.58.69-12.51 2.73-5.79 3.01-10.06 8.08-12.01 14.27l-5.76 18.23-6.87 21.75v-93.46h69.77c3.31 0 6-2.69 6-6v-62.66c0-24.2-19.69-43.89-43.89-43.89zm-426.11 413.09v-56.65h63.78v56.65c0 17.58-14.31 31.89-31.89 31.89s-31.89-14.31-31.89-31.89zm366.54-38.59c-.75-1.2-2.81-5.86-1.67-19.73 1.08-12.98 4.68-29.83 10.44-48.99l23.53 7.43c-6.29 18.99-13.02 34.85-19.6 46.09-7.03 12.02-11.39 14.65-12.7 15.2zm57.86-212.09c2.95-1.53 6.3-1.83 9.43-.84s5.71 3.16 7.24 6.11 1.83 6.3.84 9.43l-3.95 12.51-23.61-7.46 3.95-12.51c.99-3.14 3.15-5.71 6.1-7.24zm-13.67 31.18 23.61 7.46-31.83 100.73-23.61-7.46zm-45.09 102.84c-5.44 17.22-20.53 69.59-8.47 85.6l-3.44 11.13c-.98 3.17.79 6.53 3.96 7.5.59.18 1.19.27 1.78.27 2.56 0 4.93-1.65 5.73-4.23l3.18-10.28c4.73-.92 9.4-4.75 13.85-10.28v55.13c0 7.56-6.15 13.71-13.71 13.71h-306.52c8.48-8.01 13.78-19.34 13.78-31.89v-62.65-286.67c0-28.54 23.22-51.77 51.76-51.77h268.46c-8.48 8.01-13.78 19.34-13.78 31.89v62.65 137.43zm92.36-195.89h-63.78v-56.65c0-17.58 14.31-31.89 31.89-31.89s31.89 14.31 31.89 31.89zm-352.27 195.24c0-3.31 2.69-6 6-6h23.19c3.31 0 6 2.69 6 6s-2.69 6-6 6h-23.19c-3.31 0-6-2.69-6-6zm246.4 0c0 3.31-2.69 6-6 6h-183.6c-3.31 0-6-2.69-6-6s2.69-6 6-6h183.6c3.32 0 6 2.68 6 6zm-110.22 57.44c-3.31 0-6-2.69-6-6s2.69-6 6-6h91.58c3.31 0 6 2.69 6 6s-2.69 6-6 6zm-21.61-6c0 3.31-2.69 6-6 6h-102.57c-3.31 0-6-2.69-6-6s2.69-6 6-6h102.57c3.32 0 6 2.69 6 6zm131.83 72.72c0 3.31-2.69 6-6 6h-107.92c-3.31 0-6-2.69-6-6s2.69-6 6-6h107.92c3.31 0 6 2.68 6 6zm-184.95-268.82c0-3.31 2.69-6 6-6h154.34c3.31 0 6 2.69 6 6s-2.69 6-6 6h-154.34c-3.31 0-6-2.68-6-6zm-42.65 0c0-3.31 2.64-6 5.95-6h.1c3.31 0 6 2.69 6 6s-2.69 6-6 6-6.05-2.68-6.05-6zm42.58 44.44c0-3.31 2.69-6 6-6h154.34c3.31 0 6 2.69 6 6s-2.69 6-6 6h-154.34c-3.31 0-6-2.69-6-6zm-42.7 0c0-3.31 2.69-6 6-6h.2c3.31 0 6 2.69 6 6s-2.69 6-6 6h-.2c-3.32 0-6-2.69-6-6zm42.7 44.44c0-3.31 2.69-6 6-6h154.34c3.31 0 6 2.69 6 6s-2.69 6-6 6h-154.34c-3.31 0-6-2.69-6-6zm-42.7 0c0-3.31 2.69-6 6-6h.2c3.31 0 6 2.69 6 6s-2.69 6-6 6h-.2c-3.32 0-6-2.69-6-6zm61.12-135.85c2.25 3.89 6.42 6.06 10.89 5.65l15.64-1.41 6.6 14.25c1.89 4.07 5.85 6.6 10.34 6.6s8.45-2.53 10.34-6.6l6.6-14.25 15.64 1.41c4.47.41 8.65-1.76 10.89-5.65s2.03-8.58-.55-12.25l-9.04-12.84 9.04-12.84c2.58-3.67 2.79-8.37.55-12.25-2.25-3.89-6.42-6.06-10.89-5.65l-15.64 1.41-6.6-14.25c-1.89-4.07-5.85-6.6-10.34-6.6s-8.45 2.53-10.34 6.6l-6.6 14.25-15.64-1.41c-4.47-.41-8.64 1.76-10.89 5.65s-2.04 8.58.55 12.26l9.04 12.84-9.04 12.84c-2.58 3.66-2.79 8.35-.55 12.24zm19.65-31.65-8.53-12.12 14.76 1.33c4.85.44 9.31-2.14 11.36-6.56l6.23-13.45 6.23 13.45c2.05 4.42 6.51 6.99 11.36 6.56l14.76-1.33-8.53 12.11c-2.81 3.99-2.81 9.13 0 13.12l8.53 12.12-14.76-1.33c-4.87-.44-9.31 2.14-11.36 6.56l-6.23 13.45-6.23-13.45c-1.9-4.09-5.86-6.6-10.29-6.6-.35 0-.71.02-1.06.05l-14.76 1.33 8.53-12.12c2.79-3.99 2.79-9.14-.01-13.12z"/></svg>