<svg clip-rule="evenodd" fill-rule="evenodd" height="512" stroke-linejoin="round" stroke-miterlimit="2" viewBox="0 0 48 48" width="512" xmlns="http://www.w3.org/2000/svg"><g transform="translate(-432 -336)"><g id="Icon"><path d="m471 350.343v-8.343c0-2.761-2.239-5-5-5-6.926 0-21.074 0-28 0-2.761 0-5 2.239-5 5v36c0 2.761 2.239 5 5 5h28c2.761 0 5-2.239 5-5v-8.343c0-.552-.448-1-1-1s-1 .448-1 1v8.343c0 1.657-1.343 3-3 3h-28c-1.657 0-3-1.343-3-3 0-8.367 0-27.633 0-36 0-1.657 1.343-3 3-3h28c1.657 0 3 1.343 3 3v8.343c0 .552.448 1 1 1s1-.448 1-1z"/><path d="m453.051 375.684c-.119.359-.026.755.242 1.023s.664.361 1.023.242c0 0 4.16-1.387 5.552-1.851.442-.147.844-.395 1.173-.725l17.252-17.252c.563-.562.879-1.325.879-2.121s-.317-1.559-.879-2.121c-.38-.381-.791-.792-1.172-1.172-.562-.562-1.325-.879-2.121-.879s-1.559.316-2.121.879l-17.252 17.252c-.33.329-.578.731-.725 1.173-.464 1.392-1.851 5.552-1.851 5.552zm2.53-1.265 2.568-.856-1.712-1.712zm1.833-4.419 2.586 2.586 13.586-13.586-2.586-2.586zm17.586-12.414-2.586-2.586 1.879-1.879c.187-.187.442-.293.707-.293s.52.106.707.293l1.172 1.172c.187.187.293.442.293.707s-.106.52-.293.707z"/><path d="m440 377h2c.379 0 .725-.214.894-.553l1.106-2.211s1.106 2.211 1.106 2.211c.169.339.515.553.894.553h4c.552 0 1-.448 1-1s-.448-1-1-1h-3.382s-1.724-3.447-1.724-3.447c-.169-.339-.515-.553-.894-.553s-.725.214-.894.553l-1.724 3.447h-1.382c-.552 0-1 .448-1 1s.448 1 1 1z"/><path d="m442 347h20c.552 0 1-.448 1-1s-.448-1-1-1h-20c-.552 0-1 .448-1 1s.448 1 1 1z"/><g transform="translate(0 6)"><path d="m442 347h20c.552 0 1-.448 1-1s-.448-1-1-1h-20c-.552 0-1 .448-1 1s.448 1 1 1z"/></g><g transform="translate(0 12)"><path d="m442 347h20c.552 0 1-.448 1-1s-.448-1-1-1h-20c-.552 0-1 .448-1 1s.448 1 1 1z"/></g><g transform="translate(0 18)"><path d="m442 347h14c.552 0 1-.448 1-1s-.448-1-1-1h-14c-.552 0-1 .448-1 1s.448 1 1 1z"/></g></g></g></svg>