<?xml version="1.0" encoding="UTF-8" standalone="no"?>
<!-- Created with Inkscape (http://www.inkscape.org/) -->

<svg
   version="1.1"
   id="svg1203"
   xml:space="preserve"
   width="682.66669"
   height="682.66669"
   viewBox="0 0 682.66669 682.66669"
   xmlns="http://www.w3.org/2000/svg"
   xmlns:svg="http://www.w3.org/2000/svg"><defs
     id="defs1207"><clipPath
       clipPathUnits="userSpaceOnUse"
       id="clipPath1217"><path
         d="M 0,512 H 512 V 0 H 0 Z"
         id="path1215" /></clipPath></defs><g
     id="g1209"
     transform="matrix(1.3333333,0,0,-1.3333333,0,682.66667)"><g
       id="g1211"><g
         id="g1213"
         clip-path="url(#clipPath1217)"><g
           id="g1219"
           transform="translate(259.4346,496.9565)"><path
             d="m 0,0 c -6.657,-33.685 -35.229,-59.476 -70.242,-61.925 6.425,-23.554 2.714,-50.913 -12.376,-74.632 -15.562,-24.463 -39.761,-39.6 -64.62,-43.192 0.338,-2.923 0.518,-5.895 0.518,-8.909 0,-42.624 -34.553,-77.177 -77.177,-77.177 -6.735,0 -13.266,0.867 -19.494,2.487 11.299,-122.6 114.408,-218.609 239.956,-218.609 133.101,0 241,107.9 241,241 C 237.565,-109.004 131.515,-1.839 0,0 Z"
             style="fill:none;stroke:#000000;stroke-width:30;stroke-linecap:round;stroke-linejoin:round;stroke-miterlimit:10;stroke-dasharray:none;stroke-opacity:1"
             id="path1221" /></g><g
           id="g1223"
           transform="translate(213.6865,189.2998)"><path
             d="m 0,0 c 0,-20.443 -16.572,-37.015 -37.016,-37.015 -20.442,0 -37.014,16.572 -37.014,37.015 0,20.443 16.572,37.015 37.014,37.015 C -16.572,37.015 0,20.443 0,0 Z"
             style="fill:none;stroke:#000000;stroke-width:30;stroke-linecap:round;stroke-linejoin:round;stroke-miterlimit:10;stroke-dasharray:none;stroke-opacity:1"
             id="path1225" /></g><g
           id="g1227"
           transform="translate(341.7266,384.0034)"><path
             d="m 0,0 c 0,-22.046 -17.871,-39.917 -39.917,-39.917 -22.045,0 -39.917,17.871 -39.917,39.917 0,22.045 17.872,39.917 39.917,39.917 C -17.871,39.917 0,22.045 0,0 Z"
             style="fill:none;stroke:#000000;stroke-width:30;stroke-linecap:round;stroke-linejoin:round;stroke-miterlimit:10;stroke-dasharray:none;stroke-opacity:1"
             id="path1229" /></g><g
           id="g1231"
           transform="translate(363.3721,149.5977)"><path
             d="m 0,0 c 0,-19.511 -15.817,-35.328 -35.328,-35.328 -19.512,0 -35.328,15.817 -35.328,35.328 0,19.511 15.816,35.328 35.328,35.328 C -15.817,35.328 0,19.511 0,0 Z"
             style="fill:none;stroke:#000000;stroke-width:30;stroke-linecap:round;stroke-linejoin:round;stroke-miterlimit:10;stroke-dasharray:none;stroke-opacity:1"
             id="path1233" /></g><g
           id="g1235"
           transform="translate(433.7578,277.2319)"><path
             d="m 0,0 c 0,-19.511 -15.816,-35.328 -35.327,-35.328 -19.512,0 -35.328,15.817 -35.328,35.328 0,19.511 15.816,35.328 35.328,35.328 C -15.816,35.328 0,19.511 0,0 Z"
             style="fill:none;stroke:#000000;stroke-width:30;stroke-linecap:round;stroke-linejoin:round;stroke-miterlimit:10;stroke-dasharray:none;stroke-opacity:1"
             id="path1237" /></g><g
           id="g1239"
           transform="translate(398.4297,374.8511)"><path
             d="M 0,0 V 0"
             style="fill:none;stroke:#000000;stroke-width:30;stroke-linecap:round;stroke-linejoin:round;stroke-miterlimit:10;stroke-dasharray:none;stroke-opacity:1"
             id="path1241" /></g><g
           id="g1243"
           transform="translate(429.8486,184.9253)"><path
             d="M 0,0 V 0"
             style="fill:none;stroke:#000000;stroke-width:30;stroke-linecap:round;stroke-linejoin:round;stroke-miterlimit:10;stroke-dasharray:none;stroke-opacity:1"
             id="path1245" /></g><g
           id="g1247"
           transform="translate(206.0029,297.2319)"><path
             d="M 0,0 V 0"
             style="fill:none;stroke:#000000;stroke-width:30;stroke-linecap:round;stroke-linejoin:round;stroke-miterlimit:10;stroke-dasharray:none;stroke-opacity:1"
             id="path1249" /></g><g
           id="g1251"
           transform="translate(236.0029,85.2319)"><path
             d="M 0,0 V 0"
             style="fill:none;stroke:#000000;stroke-width:30;stroke-linecap:round;stroke-linejoin:round;stroke-miterlimit:10;stroke-dasharray:none;stroke-opacity:1"
             id="path1253" /></g><g
           id="g1255"
           transform="translate(301.8096,285.2319)"><path
             d="M 0,0 V 0"
             style="fill:none;stroke:#000000;stroke-width:30;stroke-linecap:round;stroke-linejoin:round;stroke-miterlimit:10;stroke-dasharray:none;stroke-opacity:1"
             id="path1257" /></g><g
           id="g1259"
           transform="translate(270.8467,228.5791)"><path
             d="M 0,0 V 0"
             style="fill:none;stroke:#000000;stroke-width:30;stroke-linecap:round;stroke-linejoin:round;stroke-miterlimit:10;stroke-dasharray:none;stroke-opacity:1"
             id="path1261" /></g><g
           id="g1263"
           transform="translate(75.6553,184.9253)"><path
             d="M 0,0 V 0"
             style="fill:none;stroke:#000000;stroke-width:30;stroke-linecap:round;stroke-linejoin:round;stroke-miterlimit:10;stroke-dasharray:none;stroke-opacity:1"
             id="path1265" /></g><g
           id="g1267"
           transform="translate(127.6553,459.9849)"><path
             d="m 0,0 c 0,-20.443 -16.572,-37.015 -37.016,-37.015 -20.442,0 -37.014,16.572 -37.014,37.015 0,20.443 16.572,37.015 37.014,37.015 C -16.572,37.015 0,20.443 0,0 Z"
             style="fill:none;stroke:#000000;stroke-width:30;stroke-linecap:round;stroke-linejoin:round;stroke-miterlimit:10;stroke-dasharray:none;stroke-opacity:1"
             id="path1269" /></g><g
           id="g1271"
           transform="translate(15,349.8511)"><path
             d="M 0,0 V 0"
             style="fill:none;stroke:#000000;stroke-width:30;stroke-linecap:round;stroke-linejoin:round;stroke-miterlimit:10;stroke-dasharray:none;stroke-opacity:1"
             id="path1273" /></g></g></g></g></svg>
