<svg id="Capa_1" enable-background="new 0 0 508 508" height="512" viewBox="0 0 508 508" width="512" xmlns="http://www.w3.org/2000/svg"><g><path d="m492.129 212.404c-4.402-7.035-8.56-13.681-10.116-19.499-1.675-6.27-1.412-14.377-1.133-22.961.448-13.793.956-29.427-6.885-42.979-7.95-13.741-21.853-21.135-34.118-27.658-7.486-3.981-14.556-7.741-19-12.185-4.443-4.443-8.203-11.514-12.185-18.999-6.523-12.267-13.917-26.169-27.659-34.119-13.552-7.841-29.184-7.337-42.979-6.885-8.585.277-16.692.541-22.961-1.134-5.819-1.556-12.464-5.714-19.5-10.116-11.887-7.437-25.362-15.869-41.593-15.869s-29.706 8.432-41.595 15.87c-7.035 4.402-13.681 8.561-19.5 10.116-6.27 1.675-14.376 1.411-22.961 1.134-13.792-.45-29.426-.956-42.978 6.885-13.742 7.95-21.135 21.853-27.659 34.119-3.981 7.485-7.742 14.556-12.185 18.999-4.443 4.442-11.513 8.203-18.999 12.184-12.266 6.523-26.168 13.917-34.119 27.659-7.841 13.552-7.333 29.186-6.886 42.979.279 8.584.542 16.692-1.134 22.962-1.556 5.819-5.713 12.464-10.116 19.499-7.436 11.888-15.868 25.363-15.868 41.594s8.432 29.706 15.871 41.596c4.402 7.035 8.56 13.681 10.116 19.499 1.675 6.27 1.412 14.377 1.133 22.961-.448 13.793-.956 29.427 6.885 42.979 7.95 13.741 21.853 21.135 34.118 27.658 7.486 3.981 14.556 7.741 19 12.185 4.443 4.443 8.203 11.514 12.185 18.999 6.523 12.267 13.917 26.169 27.659 34.119 13.552 7.841 29.183 7.337 42.979 6.885 8.584-.278 16.692-.541 22.961 1.134 5.819 1.556 12.464 5.714 19.5 10.116 11.887 7.437 25.362 15.869 41.593 15.869s29.706-8.432 41.595-15.87c7.035-4.402 13.681-8.561 19.5-10.116 6.27-1.676 14.376-1.412 22.961-1.134 13.792.452 29.427.957 42.978-6.885 13.742-7.95 21.135-21.853 27.659-34.119 3.981-7.485 7.742-14.556 12.185-18.999 4.443-4.442 11.513-8.203 18.999-12.184 12.266-6.523 26.168-13.917 34.119-27.659 7.841-13.552 7.333-29.186 6.886-42.979-.279-8.584-.542-16.692 1.134-22.962 1.556-5.819 5.713-12.464 10.116-19.499 7.436-11.888 15.868-25.363 15.868-41.594s-8.432-29.706-15.871-41.596zm-25.431 67.278c-5.383 8.602-10.949 17.497-13.667 27.666-2.821 10.556-2.473 21.295-2.136 31.682.348 10.725.677 20.854-2.868 26.981-3.651 6.31-12.68 11.111-22.239 16.195-9.102 4.841-18.513 9.846-26.125 17.458s-12.618 17.023-17.458 26.125c-5.084 9.56-9.886 18.589-16.195 22.239-6.127 3.545-16.257 3.217-26.981 2.868-10.386-.337-21.125-.687-31.681 2.135-10.169 2.718-19.064 8.284-27.667 13.667-9.288 5.812-18.062 11.302-25.681 11.302s-16.392-5.49-25.681-11.302c-8.603-5.383-17.498-10.949-27.667-13.667-7.08-1.893-14.243-2.358-21.327-2.358-3.477 0-6.935.112-10.354.224-10.725.347-20.854.678-26.981-2.868-6.31-3.65-11.111-12.68-16.195-22.239-4.841-9.102-9.846-18.513-17.458-26.125s-17.024-12.618-26.126-17.459c-9.559-5.084-18.588-9.886-22.238-16.194-3.545-6.128-3.216-16.257-2.868-26.981.337-10.386.686-21.126-2.135-31.682-2.718-10.168-8.284-19.063-13.666-27.665-5.814-9.29-11.304-18.065-11.304-25.684s5.49-16.393 11.302-25.682c5.383-8.602 10.949-17.497 13.667-27.666 2.821-10.556 2.473-21.295 2.136-31.682-.348-10.725-.677-20.854 2.868-26.981 3.651-6.31 12.68-11.111 22.239-16.195 9.102-4.841 18.513-9.846 26.125-17.458s12.618-17.023 17.458-26.125c5.084-9.56 9.886-18.589 16.195-22.239 6.128-3.545 16.258-3.215 26.981-2.868 10.386.339 21.126.688 31.681-2.135 10.169-2.718 19.064-8.284 27.667-13.667 9.288-5.812 18.062-11.302 25.681-11.302s16.392 5.49 25.681 11.302c8.603 5.383 17.498 10.949 27.667 13.667 10.555 2.821 21.296 2.473 31.681 2.135 10.726-.346 20.854-.677 26.981 2.868 6.31 3.65 11.111 12.68 16.195 22.239 4.841 9.102 9.846 18.513 17.458 26.125s17.024 12.618 26.126 17.459c9.559 5.084 18.588 9.886 22.238 16.194 3.545 6.128 3.216 16.257 2.868 26.981-.337 10.386-.686 21.126 2.135 31.682 2.718 10.168 8.284 19.063 13.666 27.665 5.814 9.289 11.304 18.064 11.304 25.683s-5.49 16.393-11.302 25.682z"/><path d="m226.106 284.893-41.5-41.499-21.212 21.212 62.284 62.285 118.71-113.961-20.776-21.643z"/><path d="m254 79c-96.495 0-175 78.505-175 175s78.505 175 175 175 175-78.505 175-175-78.505-175-175-175zm0 320c-79.953 0-145-65.047-145-145s65.047-145 145-145 145 65.047 145 145-65.047 145-145 145z"/></g></svg>