<svg id="Capa_1" enable-background="new 0 0 512 512" height="512" viewBox="0 0 512 512" width="512" xmlns="http://www.w3.org/2000/svg"><g><path d="m388.133 108.579c6.18 0 12.363-2.353 17.068-7.059 4.56-4.559 7.07-10.62 7.07-17.068 0-6.447-2.511-12.509-7.07-17.069l-25.131-25.132c-9.414-9.412-24.726-9.41-34.138 0-9.41 9.411-9.41 24.724 0 34.137l25.132 25.132c4.706 4.707 10.887 7.059 17.069 7.059zm-31.573-55.699c1.776-1.776 4.109-2.664 6.441-2.664 2.333 0 4.665.888 6.44 2.664l25.132 25.132c1.721 1.72 2.668 4.008 2.668 6.44 0 2.433-.947 4.72-2.668 6.44-3.552 3.552-9.332 3.552-12.882 0l-25.131-25.131c-3.552-3.552-3.552-9.33 0-12.881z"/><path d="m451.917 222.323c-3.313-3.623-8.03-5.702-12.942-5.702h-8.718c-3.277-11.481-13.856-19.915-26.374-19.915h-6.496c-7.15-7.512-30.081-30.425-60.54-49.204l17.604-17.605c10.537 9.233 23.73 13.848 36.927 13.847 14.357-.002 28.72-5.468 39.65-16.397 10.592-10.591 16.426-24.673 16.426-39.651 0-14.979-5.834-29.061-16.425-39.652l-31.622-31.621c-10.592-10.59-24.673-16.423-39.651-16.423s-29.06 5.833-39.651 16.424-16.424 24.673-16.424 39.651c0 13.729 4.899 26.703 13.872 36.928l-31.787 31.787c-10.237-2.651-20.23-3.994-29.766-3.994-21.664 0-45.158 6.828-69.83 20.295-3.643 1.988-4.984 6.553-2.996 10.196 1.364 2.501 3.942 3.917 6.603 3.916 1.216 0 2.451-.296 3.593-.92 22.439-12.247 43.51-18.457 62.63-18.457 5.524 0 11.26.543 17.142 1.589l-3.737 3.737c-10.171 10.172-10.171 26.724 0 36.897 4.928 4.928 11.48 7.642 18.449 7.642s13.521-2.714 18.449-7.642l19.6-19.6c21.067 12.568 38.882 27.771 50.065 38.259h-239.949c7.956-7.468 19.267-17.326 32.697-26.892 3.381-2.407 4.169-7.1 1.761-10.48-2.408-3.381-7.101-4.17-10.48-1.76-22.818 16.253-39.478 32.94-45.381 39.133h-6.498c-12.519 0-23.098 8.433-26.375 19.915h-8.717c-4.912 0-9.63 2.078-12.942 5.702-3.313 3.624-4.962 8.509-4.523 13.402 1.756 19.568 7.969 57.412 29.84 91.019 8.529 13.105 18.66 24.316 30.246 33.505l15.474 119.022c2.426 18.656 18.444 32.726 37.26 32.726h38.438c4.15 0 7.515-3.364 7.515-7.515s-3.364-7.515-7.515-7.515h-38.438c-11.289 0-20.9-8.442-22.356-19.637l-13.764-105.868c.148.084.292.174.44.257 20.957 11.82 45.742 18.195 73.741 18.989 3.518 9.668 12.8 16.592 23.669 16.592h51.777c10.87 0 20.151-6.924 23.67-16.592 27.999-.793 52.783-7.169 73.74-18.989.148-.084.293-.173.44-.257l-13.764 105.868c-1.455 11.195-11.066 19.637-22.355 19.637h-106.742c-4.15 0-7.515 3.364-7.515 7.515s3.364 7.515 7.515 7.515h106.743c18.815 0 34.834-14.07 37.259-32.729l15.475-119.022c11.586-9.189 21.717-20.4 30.247-33.505 21.872-33.607 28.083-71.451 29.84-91.019.438-4.893-1.211-9.778-4.524-13.402zm-156.242-54.904c-2.089 2.09-4.867 3.241-7.821 3.241s-5.732-1.151-7.821-3.24c-4.312-4.313-4.312-11.33 0-15.642l53.376-53.376c2.934-2.936 2.934-7.693 0-10.628l-2.676-2.676c-7.753-7.752-12.023-18.06-12.023-29.023s4.27-21.27 12.023-29.023c7.752-7.753 18.06-12.023 29.023-12.023 10.964 0 21.271 4.27 29.022 12.023l31.622 31.622h.001c7.753 7.752 12.023 18.06 12.023 29.024 0 10.963-4.27 21.27-12.023 29.022s-18.06 12.023-29.022 12.023c-10.964 0-21.27-4.27-29.023-12.024l-2.677-2.676c-2.935-2.934-7.692-2.932-10.627.001zm-197.678 151.126c-20.098-30.881-25.836-65.986-27.467-84.163-.086-.96.367-1.614.645-1.917.278-.304.887-.814 1.85-.814h8.717c2.671 9.359 10.193 16.691 19.665 19.082l11.239 86.446c-5.32-5.61-10.211-11.815-14.649-18.634zm183.892 73.73h-51.777c-5.596 0-10.149-4.553-10.149-10.15s4.553-10.15 10.149-10.15h51.777c5.597 0 10.15 4.553 10.15 10.15-.001 5.597-4.554 10.15-10.15 10.15zm24.329-16.629c-2.867-10.753-12.686-18.7-24.33-18.7h-51.777c-11.644 0-21.463 7.947-24.329 18.7-30.004-1.012-55.429-8.917-76.046-23.602l-13.063-100.478h192.977c4.151 0 7.515-3.364 7.515-7.515s-3.364-7.515-7.515-7.515h-201.532c-6.838 0-12.4-5.563-12.4-12.4s5.563-12.4 12.4-12.4h295.765c6.837 0 12.4 5.563 12.4 12.4s-5.563 12.4-12.4 12.4h-64.174c-4.151 0-7.515 3.364-7.515 7.515s3.364 7.515 7.515 7.515h55.619l-13.064 100.479c-20.617 14.684-46.042 22.589-76.046 23.601zm107.785-57.101c-4.438 6.819-9.329 13.024-14.65 18.633l11.239-86.446c9.472-2.391 16.994-9.723 19.665-19.082h8.718c.963 0 1.572.51 1.85.814.278.303.732.957.646 1.916-1.632 18.179-7.37 53.284-27.468 84.165z"/></g></svg>