<svg id="Layer_3" enable-background="new 0 0 60 60" height="512" viewBox="0 0 60 60" width="512" xmlns="http://www.w3.org/2000/svg"><path d="m23.81 44.25c0-.84-.68-1.52-1.51-1.52-.84 0-1.52.68-1.52 1.52 0 .83.68 1.51 1.52 1.51.83 0 1.51-.68 1.51-1.51z"/><path d="m50.8 5.01h-4.02v10.85c1.37.43 2.38 1.7 2.38 3.21 0 1.86-1.51 3.38-3.38 3.38s-3.38-1.51-3.38-3.38c0-1.51 1-2.78 2.38-3.21v-10.85h-5.88v13.82l-2.92 3.73c.39.55.62 1.21.62 1.94 0 1.86-1.51 3.37-3.37 3.37s-3.37-1.51-3.37-3.37 1.51-3.37 3.37-3.37c.41 0 .79.08 1.16.22l2.51-3.21v-13.13h-27.7c-2.31 0-4.19 1.88-4.19 4.19v4.12h15.63l3.73 2.92c.55-.39 1.21-.62 1.94-.62 1.86 0 3.37 1.51 3.37 3.37s-1.51 3.37-3.37 3.37-3.37-1.51-3.37-3.37c0-.41.08-.79.22-1.16l-3.21-2.51h-14.94v6.18h10.98l2.3 2.64c.29-.1.59-.17.91-.17 1.53 0 2.77 1.24 2.77 2.77s-1.24 2.77-2.77 2.77-2.77-1.24-2.77-2.77c0-.47.13-.91.34-1.3l-1.69-1.94h-10.07v27.3c0 2.31 1.88 4.19 4.19 4.19h3.98v-13.49c-1.57-.44-2.73-1.87-2.73-3.57 0-2.05 1.67-3.72 3.72-3.72s3.72 1.67 3.72 3.72c0 1.7-1.16 3.13-2.72 3.57v13.5h6.12v-7.4c-1.45-.43-2.52-1.76-2.52-3.35 0-1.94 1.58-3.52 3.52-3.52s3.51 1.58 3.51 3.52c0 1.59-1.06 2.91-2.51 3.35v7.4h27.5c2.31 0 4.19-1.88 4.19-4.19v-11.66h-6.75l-2.37 2.37c.22.44.35.93.35 1.45 0 1.83-1.49 3.32-3.32 3.32s-3.32-1.49-3.32-3.32 1.49-3.32 3.32-3.32c.58 0 1.11.16 1.59.42l2.92-2.92h7.58v-6.15h-7.08l-5.13 4.55h-7.24c-.43 1.45-1.76 2.51-3.35 2.51-1.94 0-3.52-1.58-3.52-3.52s1.58-3.52 3.52-3.52c1.59 0 2.92 1.07 3.35 2.52h6.48l5.13-4.54h7.85v-19.8c0-2.31-1.88-4.19-4.19-4.19z"/><path d="m45.78 20.43c.76 0 1.38-.62 1.38-1.38s-.62-1.38-1.38-1.38-1.38.62-1.38 1.38c.01.77.63 1.38 1.38 1.38z"/><path d="m15.9 37.93c0-.95-.77-1.72-1.72-1.72s-1.72.77-1.72 1.72.77 1.72 1.72 1.72 1.72-.77 1.72-1.72z"/><path d="m27.68 18.98c0-.75-.61-1.37-1.37-1.37s-1.37.61-1.37 1.37c0 .75.61 1.37 1.37 1.37s1.37-.62 1.37-1.37z"/><path d="m19.97 26.73c0-.43-.35-.77-.77-.77s-.77.35-.77.77.35.77.77.77c.43 0 .77-.34.77-.77z"/><path d="m41.58 42.97c0 .73.59 1.32 1.32 1.32s1.32-.59 1.32-1.32-.59-1.32-1.32-1.32-1.32.59-1.32 1.32z"/><path d="m30.66 34.54c0 .84.68 1.52 1.52 1.52.83 0 1.51-.68 1.51-1.52s-.68-1.52-1.51-1.52c-.84.01-1.52.69-1.52 1.52z"/><circle cx="33.24" cy="24.5" r="1.37"/></svg>