<svg version="1.1" id="Capa_1" xmlns="http://www.w3.org/2000/svg" xmlns:xlink="http://www.w3.org/1999/xlink" x="0px" y="0px" viewBox="0 0 512 512" style="enable-background:new 0 0 512 512;" xml:space="preserve">
<g>
	<g>
		
			<polyline style="fill:none;stroke:#000000;stroke-width:30;stroke-linecap:round;stroke-linejoin:round;stroke-miterlimit:10;" points="&#10;&#9;&#9;&#9;305.23,217.029 341.168,175.362 341.168,343.5 &#9;&#9;"/>
		<path style="fill:none;stroke:#000000;stroke-width:30;stroke-linecap:round;stroke-linejoin:round;stroke-miterlimit:10;" d="&#10;&#9;&#9;&#9;M246.075,294.879c0,26.853-21.768,48.621-48.621,48.621c-26.853,0-48.621-21.768-48.621-48.621v-77.757&#10;&#9;&#9;&#9;c0-26.853,21.769-48.621,48.621-48.621c26.853,0,48.621,21.769,48.621,48.621V294.879z"/>
	</g>
	<path style="fill:none;stroke:#000000;stroke-width:30;stroke-linecap:round;stroke-linejoin:round;stroke-miterlimit:10;" d="&#10;&#9;&#9;M32.13,166.61c-1.86,4.64-3.58,9.35-5.15,14.13c-4.67,14.23-8.05,29.04-10,44.3C15.67,235.17,15,245.51,15,256&#10;&#9;&#9;c0,133.1,107.9,241,241,241c58.36,0,111.87-20.75,153.57-55.27"/>
	<path style="fill:none;stroke:#000000;stroke-width:30;stroke-linecap:round;stroke-linejoin:round;stroke-miterlimit:10;" d="&#10;&#9;&#9;M102.43,70.27C144.13,35.75,197.64,15,256,15c133.1,0,241,107.9,241,241c0,10.49-0.67,20.83-1.98,30.96&#10;&#9;&#9;c-1.95,15.26-5.33,30.07-10,44.3c-1.57,4.78-3.29,9.49-5.15,14.13"/>
	
		<circle style="fill:none;stroke:#000000;stroke-width:30;stroke-linecap:round;stroke-linejoin:round;stroke-miterlimit:10;" cx="45" cy="139.51" r="30"/>
	
		<circle style="fill:none;stroke:#000000;stroke-width:30;stroke-linecap:round;stroke-linejoin:round;stroke-miterlimit:10;" cx="467" cy="372.49" r="30"/>
</g>
<g>
</g>
<g>
</g>
<g>
</g>
<g>
</g>
<g>
</g>
<g>
</g>
<g>
</g>
<g>
</g>
<g>
</g>
<g>
</g>
<g>
</g>
<g>
</g>
<g>
</g>
<g>
</g>
<g>
</g>
</svg>