<svg id="Icons" height="512" viewBox="0 0 74 74" width="512" xmlns="http://www.w3.org/2000/svg"><path d="m57.77 45.754h-41.54a13.558 13.558 0 0 1 -3.52-26.654c0-.057 0-.115 0-.174a16.92 16.92 0 0 1 31.7-8.251 9.658 9.658 0 0 1 2.227-.272 10.673 10.673 0 0 1 10.314 8.237h.819a13.557 13.557 0 0 1 0 27.114zm-28.132-41.754a14.947 14.947 0 0 0 -14.93 14.93c0 .214.015.424.029.633l.017.266a1 1 0 0 1 -.8 1.038 11.557 11.557 0 0 0 2.276 22.887h41.54a11.557 11.557 0 0 0 0-23.114h-1.647a1 1 0 0 1 -.989-.855 8.658 8.658 0 0 0 -8.5-7.378 8.481 8.481 0 0 0 -2.454.4 1 1 0 0 1 -1.18-.507 14.849 14.849 0 0 0 -13.362-8.3z"/><path d="m60.859 62.456h-7.008a5.928 5.928 0 0 1 -5.921-5.921v-11.781a1 1 0 0 1 2 0v11.781a3.925 3.925 0 0 0 3.921 3.921h7.008a1 1 0 0 1 0 2z"/><path d="m65.035 66.631a5.175 5.175 0 1 1 5.176-5.175 5.182 5.182 0 0 1 -5.176 5.175zm0-8.35a3.175 3.175 0 1 0 3.176 3.175 3.179 3.179 0 0 0 -3.176-3.175z"/><path d="m37 72a5.176 5.176 0 1 1 5.176-5.175 5.182 5.182 0 0 1 -5.176 5.175zm0-8.351a3.176 3.176 0 1 0 3.176 3.176 3.18 3.18 0 0 0 -3.176-3.176z"/><path d="m20.149 62.456h-7.008a1 1 0 0 1 0-2h7.008a3.925 3.925 0 0 0 3.921-3.921v-11.781a1 1 0 0 1 2 0v11.781a5.928 5.928 0 0 1 -5.921 5.921z"/><path d="m8.965 66.631a5.175 5.175 0 1 1 5.176-5.175 5.181 5.181 0 0 1 -5.176 5.175zm0-8.35a3.175 3.175 0 1 0 3.176 3.175 3.179 3.179 0 0 0 -3.176-3.175z"/><path d="m37 63.649a1 1 0 0 1 -1-1v-17.9a1 1 0 1 1 2 0v17.9a1 1 0 0 1 -1 1z"/></svg>