<svg enable-background="new 0 0 128 128" viewBox="0 0 128 128" xmlns="http://www.w3.org/2000/svg"><g id="Layer_1" display="none"><g id="XMLID_1464_" display="inline" fill="none" stroke="#000" stroke-miterlimit="10" stroke-width=".1"><path id="XMLID_1527_" d="m0 0h128v128h-128z"/><path id="XMLID_1526_" d="m0 124h128"/><path id="XMLID_1525_" d="m0 120h128"/><path id="XMLID_1524_" d="m0 116h128"/><path id="XMLID_1523_" d="m0 112h128"/><path id="XMLID_1522_" d="m0 108h128"/><path id="XMLID_1521_" d="m0 104h128"/><path id="XMLID_1520_" d="m0 100h128"/><path id="XMLID_1519_" d="m0 96h128"/><path id="XMLID_1518_" d="m0 92h128"/><path id="XMLID_1517_" d="m0 88h128"/><path id="XMLID_1516_" d="m0 84h128"/><path id="XMLID_1515_" d="m0 80h128"/><path id="XMLID_1514_" d="m0 76h128"/><path id="XMLID_1513_" d="m0 72h128"/><path id="XMLID_1512_" d="m0 68h128"/><path id="XMLID_1511_" d="m0 64h128"/><path id="XMLID_1510_" d="m0 60h128"/><path id="XMLID_1509_" d="m0 56h128"/><path id="XMLID_1508_" d="m0 52h128"/><path id="XMLID_1507_" d="m0 48h128"/><path id="XMLID_1506_" d="m0 44h128"/><path id="XMLID_1505_" d="m0 40h128"/><path id="XMLID_1504_" d="m0 36h128"/><path id="XMLID_1503_" d="m0 32h128"/><path id="XMLID_1502_" d="m0 28h128"/><path id="XMLID_1501_" d="m0 24h128"/><path id="XMLID_1500_" d="m0 20h128"/><path id="XMLID_1499_" d="m0 16h128"/><path id="XMLID_1498_" d="m0 12h128"/><path id="XMLID_1497_" d="m0 8h128"/><path id="XMLID_1496_" d="m0 4h128"/><path id="XMLID_1495_" d="m124 0v128"/><path id="XMLID_1494_" d="m120 0v128"/><path id="XMLID_1493_" d="m116 0v128"/><path id="XMLID_1492_" d="m112 0v128"/><path id="XMLID_1491_" d="m108 0v128"/><path id="XMLID_1490_" d="m104 0v128"/><path id="XMLID_1489_" d="m100 0v128"/><path id="XMLID_1488_" d="m96 0v128"/><path id="XMLID_1487_" d="m92 0v128"/><path id="XMLID_1486_" d="m88 0v128"/><path id="XMLID_1485_" d="m84 0v128"/><path id="XMLID_1484_" d="m80 0v128"/><path id="XMLID_1483_" d="m76 0v128"/><path id="XMLID_1482_" d="m72 0v128"/><path id="XMLID_1481_" d="m68 0v128"/><path id="XMLID_1480_" d="m64 0v128"/><path id="XMLID_1479_" d="m60 0v128"/><path id="XMLID_1478_" d="m56 0v128"/><path id="XMLID_1477_" d="m52 0v128"/><path id="XMLID_1476_" d="m48 0v128"/><path id="XMLID_1475_" d="m44 0v128"/><path id="XMLID_1474_" d="m40 0v128"/><path id="XMLID_1473_" d="m36 0v128"/><path id="XMLID_1472_" d="m32 0v128"/><path id="XMLID_1471_" d="m28 0v128"/><path id="XMLID_1470_" d="m24 0v128"/><path id="XMLID_1469_" d="m20 0v128"/><path id="XMLID_1468_" d="m16 0v128"/><path id="XMLID_1467_" d="m12 0v128"/><path id="XMLID_1466_" d="m8 0v128"/><path id="XMLID_1465_" d="m4 0v128"/></g></g><g id="Layer_2" display="none"/><g id="art_board"><g id="artboard_19" fill="none" stroke="#444545" stroke-miterlimit="10" stroke-width="3"><circle id="XMLID_5005_" cx="106.1" cy="58.3" r="5.9"/><g id="XMLID_4994_"><path id="XMLID_5004_" d="m63.3 31.8v20.5"/><circle id="XMLID_5003_" cx="63.3" cy="26.7" r="5.9"/><path id="XMLID_5002_" d="m26.8 58.7 17.8 5.8"/><circle id="XMLID_5001_" cx="21.9" cy="57.1" r="5.9"/><path id="XMLID_5000_" d="m101.2 59.9-17.8 5.7"/><path id="XMLID_4999_" d="m86.4 97.2-11-15.2"/><circle id="XMLID_4998_" cx="89.4" cy="101.3" r="5.9"/><path id="XMLID_4997_" d="m40 97.2 10.9-15.2"/><circle id="XMLID_4996_" cx="36.9" cy="101.3" r="5.9"/><path id="XMLID_4995_" d="m83.2 66.2c.5-1.2.8-2.5.8-3.8 0-5.7-5.2-10.4-11.6-10.4-2.8 0-5.3.9-7.3 2.4-2-3.3-5.8-5.4-10.1-5.4-6.5 0-11.8 4.8-11.8 10.7 0 1.8.5 3.4 1.3 4.9-2.8 1.7-4.7 4.6-4.7 7.9 0 4.3 3.2 7.9 7.5 9.1 0 0 32.4.1 33.1.1 5 0 8.9-3.4 8.9-7.8 0-3.6-2.6-6.6-6.1-7.7z"/></g></g></g></svg>