<?xml version="1.0" encoding="UTF-8"?>
<svg xmlns="http://www.w3.org/2000/svg" xmlns:xlink="http://www.w3.org/1999/xlink" version="1.1" id="Layer_1" x="0px" y="0px" viewBox="0 0 512.229 512.229" style="enable-background:new 0 0 512.229 512.229;" xml:space="preserve" width="512" height="512">
<g>
	<path d="M482.881,190.914c-18.888-25.929-50.366-40.444-91.031-41.973c-25.988-0.972-47.681,3.565-53.708,4.975&#10;&#9;&#9;c-5.268-0.745-19.337-1.265-34.736,10.459c-14.336,10.916-26.015,29.439-34.761,55.067c8.582-70.245,20.126-99.389,24.433-108.282&#10;&#9;&#9;c1.009,0.075,2.01,0.048,3.025-0.063c9.736-1.065,24.283-5.076,38.293-18.133c14.287-13.315,17.567-26.729,21.721-43.712&#10;&#9;&#9;c2.479-10.135,5.288-21.622,10.97-36.236c1.207-3.103,0.679-6.659-1.378-9.279c-2.057-2.62-5.381-3.975-8.686-3.541&#10;&#9;&#9;c-67.29,5.925-96.036,39.982-79.759,98.278c0.575,2.014,1.49,3.846,2.656,5.462c-4.496,9.032-14.014,32.927-22.206,85.128&#10;&#9;&#9;c-4.782-25.941-11.036-37.147-16.741-42.641c1.162-16.701,2.045-77.044-42.757-101.187c-4.729-2.549-9.666-4.723-14.671-6.46&#10;&#9;&#9;c-9.493-2.931-14.184,10.593-4.92,14.17c4.251,1.477,8.449,3.325,12.475,5.495c22.051,11.883,30.511,35.938,33.561,56.255&#10;&#9;&#9;c-10.857-18.064-29.327-39.496-59.161-50.388c-3.888-1.417-8.196,0.583-9.617,4.474c-1.42,3.891,0.583,8.196,4.474,9.617&#10;&#9;&#9;c40.786,14.89,57.598,54.002,62.054,66.582c-9.988,1.894-28.488,2.81-49.964-8.592c-19.737-10.479-26.816-23.374-38.544-44.736&#10;&#9;&#9;c-6.229-11.346-13.806-25.147-25.089-41.29c14.003-1.72,25.95-2.769,36.988-2.635c4.131,0.054,7.544-3.264,7.592-7.407&#10;&#9;&#9;c0.051-4.142-3.265-7.541-7.407-7.592c-13.925-0.174-28.832,1.377-46.926,3.756c-3.645,0.479-6.682,2.784-8.125,6.165&#10;&#9;&#9;c-1.445,3.384-1.007,7.175,1.169,10.141c13.315,18.149,21.462,32.989,28.65,46.081c12.171,22.168,20.964,38.185,44.659,50.765&#10;&#9;&#9;c23.837,12.444,46.059,13.861,66.035,8.589c4.614,5.545,12.718,22.999,16.743,77.709c-8.395-25.404-20.031-42.201-34.868-50.224&#10;&#9;&#9;c-17.532-9.479-33.765-3.646-40.301-0.465c-7.44-1.657-28.046-5.595-52.415-4.679C19.959,183.476-2.608,265.257,0.229,354.271&#10;&#9;&#9;c-0.013,3.596,1.899,6.971,4.991,8.809c3.092,1.839,6.971,1.905,10.122,0.177c27.663-15.169,49.6-23.598,68.955-31.034&#10;&#9;&#9;c31.536-12.116,54.322-20.871,75.065-49.72c26.414-36.738,25.085-71.279,23.13-85.033c5.185-1.914,14.29-3.741,23.887,1.536&#10;&#9;&#9;c15.409,8.473,41.262,41.103,42.939,164.108h-72.141c-9.621,0-17.447,7.827-17.447,17.447v10.105&#10;&#9;&#9;c0,9.389,7.46,17.049,16.762,17.413l9.441,87.499c1.017,9.427,8.934,16.536,18.416,16.536H308.11&#10;&#9;&#9;c9.482,0,17.399-7.109,18.416-16.536l9.441-87.499c9.302-0.364,16.762-8.023,16.762-17.413v-10.105&#10;&#9;&#9;c0-9.621-7.827-17.447-17.447-17.447h-70.584c0.229-6.682,0.536-17.242,0.721-30.163c2.088-42.213,7.403-77.091,15.872-103.968&#10;&#9;&#9;c7.828-24.838,18.127-42.406,30.613-52.218c6.917-5.436,13.2-7.38,17.698-7.985c-5.489,33.934,16.572,94.613,64.086,117.174&#10;&#9;&#9;c3.675,1.909,8.203,0.477,10.113-3.199c1.909-3.676,0.477-8.204-3.199-10.113c-40.671-19.084-60.524-71.938-56.253-100.845&#10;&#9;&#9;c18.009,5.354,96.562,32.15,119.393,97.683c1.356,3.949,5.743,5.972,9.55,4.615c3.911-1.363,5.978-5.639,4.615-9.55&#10;&#9;&#9;c-13.145-42.868-62.052-82.774-108.91-100.039c97.297-8.341,130.517,52.552,128.184,150.135&#10;&#9;&#9;c-25.34-13.33-46.417-21.427-63.641-28.045l-0.598-0.229c-3.866-1.484-8.205,0.445-9.691,4.311&#10;&#9;&#9;c-1.486,3.867,0.444,8.205,4.311,9.691l0.598,0.23c19.355,7.436,41.293,15.865,68.957,31.035c3.151,1.728,7.03,1.661,10.122-0.178&#10;&#9;&#9;c3.091-1.838,5.003-5.213,4.99-8.809C512.033,268.835,509.813,227.886,482.881,190.914z M147.183,273.746&#10;&#9;&#9;c-18.126,25.208-38.075,32.876-68.266,44.475c-17.223,6.617-38.301,14.715-63.64,28.044&#10;&#9;&#9;c-2.075-96.295,29.364-158.367,128.188-150.137c-46.884,17.281-95.753,57.155-108.914,100.04c-1.363,3.912,0.704,8.188,4.615,9.55&#10;&#9;&#9;c3.807,1.357,8.194-0.666,9.55-4.615c22.767-65.346,101.253-92.256,119.353-97.666&#10;&#9;&#9;C169.231,216.754,168.289,244.391,147.183,273.746z M300.331,35.703c12.899-12.172,28.963-16.31,49.564-19.373&#10;&#9;&#9;c-3.998,11.572-6.368,21.261-8.348,29.357c-3.972,16.24-6.37,26.043-17.377,36.302c-8.227,7.667-16.58,11.348-23.397,13.06&#10;&#9;&#9;c3.646-9.677,10.863-26.524,20.76-38.556c2.631-3.199,2.171-7.925-1.027-10.557c-3.2-2.632-7.925-2.171-10.557,1.027&#10;&#9;&#9;c-9.282,11.284-16.307,25.777-20.736,36.492C286.786,69.222,286.493,48.761,300.331,35.703z M311.613,493.969&#10;&#9;&#9;c-0.194,1.793-1.7,3.146-3.503,3.146H204.348c-1.803,0-3.309-1.352-3.503-3.146l-9.263-85.855h129.295L311.613,493.969z&#10;&#9;&#9; M337.729,380.561v10.105c0,1.35-1.098,2.447-2.447,2.447H177.176c-1.35,0-2.447-1.098-2.447-2.447v-10.105&#10;&#9;&#9;c0-1.35,1.098-2.447,2.447-2.447h158.105C336.631,378.114,337.729,379.212,337.729,380.561z"/>
</g>















</svg>
