<svg id="Layer_1" enable-background="new 0 0 512.021 512.021" height="512" viewBox="0 0 512.021 512.021" width="512" xmlns="http://www.w3.org/2000/svg"><g><path d="m291.16 189.447c-4.056.846-6.656 4.818-5.811 8.873.846 4.056 4.831 6.656 8.873 5.811 3.839-.803 7.628.33 10.399 3.102s3.901 6.562 3.102 10.398c-.971 4.654 2.582 9.033 7.35 9.033 3.477-.001 6.596-2.433 7.334-5.971 1.825-8.75-.858-17.747-7.179-24.067-6.319-6.322-15.32-9.003-24.068-7.179z"/><path d="m2.375 314.339 73.126 73.126c2.931 2.929 7.678 2.928 10.607 0 2.929-2.93 2.929-7.678 0-10.607l-.722-.722 13.491-13.49 19.862 19.862-3.422 3.422c-2.929 2.93-2.929 7.678 0 10.607 2.931 2.929 7.678 2.928 10.607 0l3.422-3.422 19.862 19.862-13.491 13.49-.167-.167c-2.93-2.928-7.678-2.928-10.607 0-2.929 2.93-2.929 7.678 0 10.607 7.525 7.525 65.383 65.383 72.917 72.917 2.931 2.929 7.678 2.928 10.607 0 2.929-2.93 2.929-7.678 0-10.607l-.872-.872 13.49-13.491 11.259 11.259c6.755 6.753 17.724 6.729 24.457 0 5.802-5.802 6.13-6.078 8.092-8.322 11.476-13.159 17.303-30.552 15.525-48.521l-1.237-12.512c2.047-2.047 189.01-189.01 193.235-193.235 16.421-16.423 18.317-32.694 21.757-49.184 2.605-12.48-8.452-23.574-20.965-20.965l-7.85 1.638c.649-.649 1.272-1.272 1.868-1.868l8.893-8.893c9.009-9.009 17.09-21.105 23.369-34.98 1.708-3.774.033-8.217-3.741-9.925-3.773-1.709-8.217-.032-9.925 3.741-5.542 12.246-12.564 22.812-20.311 30.558-14.201 14.205-127.958 127.961-142.261 142.264 0 0-31.283 31.283-31.286 31.286 1.649-8.539 2.125-17.999 1.214-26.973l35.539-35.539c26.449-26.452 28.778-52.745 34.966-82.404.875-4.192.405-8.458-1.243-12.257l126.18-126.182c10.107 15.164 8.791 35.82 6.859 47.655-.667 4.088 2.106 7.943 6.194 8.61 4.09.668 7.943-2.106 8.61-6.193 4.587-28.102-1.033-51.725-15.825-66.517-33.744-33.744-105.17-13.347-136.856 18.338l-10.761 10.761 1.638-7.85c2.61-12.501-8.478-23.573-20.965-20.965l-14.544 3.035c-13.157 2.745-25.135 9.219-34.64 18.723-8.223 8.223-185.048 185.048-193.235 193.235l-12.512-1.237c-13.466-1.327-27.044 1.57-39.005 8.642-8.211 4.869-12.483 9.621-17.838 14.975-6.742 6.743-6.742 17.714 0 24.457l11.26 11.258-13.491 13.49-.526-.526c-2.93-2.928-7.678-2.928-10.607 0-2.93 2.93-2.93 7.679-.001 10.608zm194.615 173.4-50.666-50.666 13.491-13.49 50.665 50.665zm75.657-158.166-9.487 22.745c-3.392 8.13-4.726 17.062-3.858 25.827l4.604 46.559v.002l1.586 16.042c.624 6.302.025 12.55-1.674 18.46l-20.032-20.032c-2.93-2.928-7.678-2.928-10.607 0-2.929 2.93-2.929 7.678 0 10.607 24.287 24.287 22.945 22.995 23.841 23.75-1.435 2.101-3.578 4.727-5.7 6.849l-5.123 5.124c-.895.896-2.351.894-3.243 0-6.194-6.194-63.184-63.184-72.53-72.53l12.975-12.975 25.029 25.03c2.93 2.928 7.678 2.928 10.607 0 2.929-2.93 2.929-7.678 0-10.607l-25.029-25.029 84.45-84.45c-.588 8.553-2.602 16.933-5.809 24.628zm161.987-133.833c7.434-7.435 16.804-12.5 27.096-14.646l14.544-3.035c1.924-.401 3.619 1.29 3.218 3.217l-3.034 14.546c-2.147 10.291-7.212 19.661-14.646 27.095l-17.193 17.193-27.177-27.177zm-27.8 27.8 27.177 27.177-28.714 28.714-27.177-27.177zm-39.321 39.321 27.177 27.177-28.353 28.353-27.177-27.177zm-38.96 38.959 27.177 27.177-28.714 28.714-27.177-27.178zm-12.144 66.498-39.136 39.136-3.045-30.785c-.627-6.33.345-12.752 2.774-18.575 0 0 0 0 0-.001l3.38-8.103 8.85-8.849zm1.7-124.242c-2.884 2.884-141.526 141.526-158.293 158.293l-19.861-19.861 44.979-44.979c2.929-2.93 2.929-7.678 0-10.607-2.93-2.928-7.678-2.928-10.607 0l-44.981 44.978-19.861-19.861c4.92-4.92 146.457-146.458 158.293-158.294 9.736-9.737 21.697-17.303 35.265-21.92l36.985 36.986c-4.531 13.339-12.072 25.416-21.919 35.265zm30.889-74.861-4.722 22.629-24.267-24.267 22.629-4.722c3.828-.799 7.144 2.6 6.36 6.36zm19.211-122.875c25.385-25.385 80.68-42.174 109.762-23.065l-126.139 126.139c-3.799-1.648-8.064-2.117-12.258-1.242-30.955 6.458-56.535 9.103-82.403 34.966l-35.538 35.538c-9.214-.931-18.5-.421-26.974 1.215 8.844-8.844 167.451-167.452 173.55-173.551zm-79.271 3.703c7.434-7.435 16.804-12.499 27.096-14.646l14.544-3.035c1.922-.402 3.62 1.291 3.218 3.218l-3.034 14.545c-2.147 10.291-7.211 19.659-14.644 27.092l-17.197 17.196-27.177-27.177zm-27.801 27.8 27.177 27.177-28.714 28.714-27.177-27.177zm-39.32 39.321 27.177 27.177-28.354 28.353-27.177-27.177zm-38.96 38.96 27.177 27.177-28.714 28.714-27.177-27.177zm-39.32 39.32 27.176 27.177-8.85 8.85c-1.762.735-.25.104-8.102 3.379-5.847 2.438-12.271 3.398-18.575 2.774l-30.785-3.045zm-72.43 50.918c6.615.654 55.119 5.451 62.603 6.191 8.656.856 17.789-.506 25.827-3.858h-.001c25.123-10.479 31.896-14.226 47.375-15.296l-84.45 84.45-69.811-69.811c6.01-1.728 12.222-2.294 18.457-1.676zm-44.759 22.539c-.895-.894-.895-2.349 0-3.242 5.591-5.591 7.444-7.686 11.973-10.825.755.896-4.046-3.955 73.533 73.622l-12.975 12.975c-9.347-9.346-66.337-66.336-72.531-72.53zm11.258 32.473 50.665 50.665-13.491 13.49-50.665-50.665z"/></g></svg>